<svg width="33" height="33" viewBox="0 0 33 33" fill="none" xmlns="http://www.w3.org/2000/svg">
<path fill-rule="evenodd" clip-rule="evenodd" d="M8.76018 16.4057C8.76018 13.189 8.76018 11.5806 9.52669 10.4222C9.86898 9.90485 10.312 9.46183 10.8293 9.11954C11.9878 8.35303 13.5961 8.35303 16.8128 8.35303C20.0295 8.35303 21.6379 8.35303 22.7963 9.11954C23.3136 9.46183 23.7566 9.90485 24.0989 10.4222C24.8654 11.5806 24.8654 13.189 24.8654 16.4057C24.8654 19.6224 24.8654 21.2307 24.0989 22.3892C23.7566 22.9065 23.3136 23.3495 22.7963 23.6918C21.6379 24.4583 20.0295 24.4583 16.8128 24.4583C13.5961 24.4583 11.9878 24.4583 10.8293 23.6918C10.312 23.3495 9.86898 22.9065 9.52669 22.3892C8.76018 21.2307 8.76018 19.6224 8.76018 16.4057ZM20.9816 16.4059C20.9816 18.7083 19.1151 20.5748 16.8127 20.5748C14.5102 20.5748 12.6437 18.7083 12.6437 16.4059C12.6437 14.1034 14.5102 12.2369 16.8127 12.2369C19.1151 12.2369 20.9816 14.1034 20.9816 16.4059ZM16.8127 19.1643C18.3361 19.1643 19.5711 17.9293 19.5711 16.4059C19.5711 14.8824 18.3361 13.6474 16.8127 13.6474C15.2892 13.6474 14.0542 14.8824 14.0542 16.4059C14.0542 17.9293 15.2892 19.1643 16.8127 19.1643ZM21 13C21.5523 13 22 12.5523 22 12C22 11.4477 21.5523 11 21 11C20.4477 11 20 11.4477 20 12C20 12.5523 20.4477 13 21 13Z" fill="white"/>
<circle cx="16.5" cy="16.5" r="16.25" stroke="white" stroke-width="0.5"/>
</svg>
