<svg width="257" height="231" viewBox="0 0 257 231" fill="none" xmlns="http://www.w3.org/2000/svg">
<g clip-path="url(#clip0_1_598)">
<rect y="107" width="214.052" height="143.077" transform="rotate(-30 0 107)" fill="#111111"/>
<rect x="62.4043" y="188.049" width="56.3294" height="28.1647" transform="rotate(-30 62.4043 188.049)" fill="url(#paint0_linear_1_598)"/>
<path d="M85.8709 193.495L85.6088 191.888L87.8177 190.612L89.0788 191.643L90.0466 191.084L84.9824 187.035L83.9677 187.621L84.942 194.031L85.8709 193.495ZM85.1789 189.232L84.9146 188.126L85.7409 188.908L87.0873 190.014L85.456 190.956L85.1789 189.232ZM92.259 191.743L90.835 189.276C91.2979 189.789 91.9108 190.112 92.6679 189.675C93.6046 189.134 93.7606 188.034 93.0531 186.809C92.3456 185.584 91.3153 185.169 90.3943 185.701C89.6372 186.138 89.5945 186.839 89.8121 187.504L89.2263 186.49L88.3521 186.994L91.3849 192.247L92.259 191.743ZM90.4565 188.62L90.1861 188.152C89.8256 187.528 89.8443 186.965 90.461 186.609C91.0073 186.294 91.6598 186.469 92.1555 187.327C92.6512 188.186 92.4764 188.838 91.93 189.154C91.3134 189.51 90.817 189.245 90.4565 188.62ZM96.5885 189.243L95.1645 186.776C95.6274 187.29 96.2403 187.612 96.9974 187.175C97.934 186.634 98.0901 185.535 97.3826 184.309C96.6751 183.084 95.6448 182.669 94.7238 183.201C93.9667 183.638 93.924 184.339 94.1415 185.005L93.5557 183.99L92.6815 184.495L95.7143 189.748L96.5885 189.243ZM94.786 186.121L94.5156 185.653C94.1551 185.028 94.1738 184.466 94.7904 184.11C95.3368 183.794 95.9893 183.969 96.485 184.828C96.9807 185.686 96.8059 186.339 96.2595 186.654C95.6429 187.01 95.1465 186.745 94.786 186.121ZM100.08 185.292L97.0605 180.062L96.1863 180.567L99.2056 185.796L100.08 185.292ZM102.499 185.633C103.115 185.277 103.402 184.747 103.234 183.824L102.291 178.947L101.323 179.505L101.888 182.052L102.2 183.224L101.341 182.367L99.4109 180.61L98.4508 181.164L101.767 184.005L102.305 183.694L102.357 183.946C102.46 184.448 102.349 184.689 102.052 184.86C101.701 185.063 101.341 184.98 100.971 184.808L100.963 185.749C101.345 185.924 101.952 185.948 102.499 185.633Z" fill="white"/>
<path d="M48.5798 156.708C50.7224 155.471 51.0889 153.807 49.7167 151.43L47.1211 146.935L45.8098 147.692L48.4122 152.199C49.3112 153.756 49.1728 154.679 47.8615 155.436C46.5737 156.18 45.6818 155.852 44.7828 154.295L42.1803 149.787L40.8691 150.544L43.4647 155.04C44.8369 157.417 46.4841 157.918 48.5798 156.708ZM53.7914 153.543L53.953 149.172L57.8657 151.19L59.5282 150.23L54.4786 147.838L54.8237 142.488L53.2432 143.4L53.1058 147.569L49.4615 145.583L47.7873 146.55L52.5648 148.849L52.1406 154.496L53.7914 153.543ZM65.7525 146.637C68.1877 145.231 68.6221 142.982 67.2228 140.558C65.8236 138.135 63.6471 137.393 61.2236 138.793L58.2615 140.503L62.7904 148.347L65.7525 146.637ZM61.7357 140.058C63.363 139.118 64.7057 139.389 65.8413 141.356C66.9769 143.323 66.54 144.621 64.9243 145.554L63.4374 146.412L60.2605 140.91L61.7357 140.058ZM73.3312 142.417C74.5957 141.687 75.0372 140.667 75.0918 139.762L73.7973 139.385C73.8637 139.987 73.7162 140.759 72.721 141.333C71.8195 141.854 70.9047 141.648 70.2464 140.67L74.3207 138.318C74.2766 138.187 74.158 137.928 74.0364 137.717C73.1238 136.137 71.5198 135.549 69.8105 136.536C68.2065 137.462 67.777 139.286 68.8112 141.078C69.8386 142.857 71.6336 143.397 73.3312 142.417ZM70.4188 137.589C71.2852 137.089 72.0843 137.283 72.6984 138.131L69.7714 139.821C69.3428 138.835 69.611 138.056 70.4188 137.589ZM79.2954 138.974C80.5013 138.278 81.1251 137.168 80.4762 136.044C80.0031 135.225 79.2373 134.98 77.7719 135.389L76.9797 135.612C76.0921 135.859 75.6998 135.883 75.4633 135.473C75.2402 135.087 75.458 134.68 75.9615 134.389C76.6991 133.963 77.5242 133.986 78.2873 134.389L78.5868 133.123C77.8638 132.682 76.6712 132.59 75.4535 133.293C74.1423 134.05 73.6594 135.188 74.2745 136.253C74.8761 137.295 75.9372 137.213 76.9603 136.903L77.8295 136.651C78.5496 136.439 79.0639 136.329 79.3072 136.75C79.5438 137.16 79.2958 137.569 78.7338 137.893C77.7152 138.481 76.6748 138.301 76.0275 137.91L75.7279 139.176C76.6816 139.827 78.0777 139.677 79.2954 138.974ZM79.9727 129.747L79.2021 128.413L77.8908 129.17L78.6614 130.504L79.9727 129.747ZM83.731 136.257L80.4391 130.555L79.1278 131.312L82.4197 137.014L83.731 136.257ZM86.4844 132.388C87.8893 131.577 88.351 130.186 87.6547 128.981C87.2424 128.266 86.5766 127.87 85.8051 127.832L86.1945 126.046L84.68 126.343L85.1899 127.875C84.8363 127.938 84.4747 128.069 84.1118 128.279C82.7068 129.09 82.2402 130.499 82.9365 131.705C83.3556 132.431 84.0515 132.825 84.828 132.845C84.5107 133.512 84.3565 134.272 84.6539 134.787C84.904 135.221 85.3287 135.334 85.8061 135.215C85.3302 135.661 84.984 136.252 85.295 136.79C85.7073 137.504 86.9229 137.474 88.5151 136.554C90.5874 135.358 91.168 133.93 90.5461 132.853C90.0526 131.998 89.1685 131.9 88.0328 132.556L86.1947 133.617C85.6679 133.921 85.4278 133.857 85.2588 133.564C85.1439 133.365 85.1442 133.068 85.1482 132.832C85.5824 132.8 86.0395 132.645 86.4844 132.388ZM85.9436 131.451C85.3231 131.81 84.6015 131.696 84.1892 130.981C83.7769 130.267 84.0388 129.585 84.6593 129.227C85.2798 128.869 86.0014 128.983 86.4137 129.697C86.826 130.411 86.5641 131.093 85.9436 131.451ZM88.0059 135.537C86.9639 136.139 86.3536 136.163 86.1103 135.742C85.9954 135.543 86.0277 135.274 86.0821 135.071L88.4588 133.699C88.9623 133.408 89.2825 133.395 89.4582 133.7C89.7354 134.18 89.2352 134.827 88.0059 135.537ZM92.409 131.247L90.5636 128.05C90.0228 127.114 89.9924 126.304 90.9524 125.75C91.8305 125.243 92.3418 125.588 92.7474 126.29L94.8091 129.861L96.132 129.097L93.8406 125.128C93.1579 123.946 92.0935 123.67 90.9813 124.313C89.8456 124.968 89.7063 126.079 90.0161 127.102L89.1171 125.545L87.8058 126.302L91.0977 132.004L92.409 131.247ZM100.051 126.991C101.316 126.261 101.757 125.241 101.812 124.335L100.517 123.958C100.584 124.56 100.436 125.332 99.441 125.907C98.5395 126.427 97.6247 126.222 96.9664 125.244L101.041 122.891C100.997 122.761 100.878 122.501 100.756 122.291C99.8438 120.71 98.2398 120.122 96.5304 121.109C94.9264 122.035 94.4969 123.859 95.5311 125.651C96.5586 127.43 98.3535 127.971 100.051 126.991ZM97.1388 122.162C98.0052 121.662 98.8042 121.857 99.4183 122.704L96.4914 124.394C96.0628 123.408 96.3309 122.629 97.1388 122.162ZM105.009 123.972L103.197 120.835C102.65 119.886 102.826 118.785 103.481 118.407C103.868 118.184 104.169 118.354 104.351 118.67C104.54 118.997 104.581 119.474 104.502 119.769L105.848 118.992C105.852 118.755 105.768 118.258 105.45 117.707C104.964 116.864 104.166 116.7 103.452 117.113C102.434 117.701 102.333 118.851 102.65 119.886L101.717 118.271L100.405 119.028L103.697 124.729L105.009 123.972Z" fill="white"/>
<path d="M54.9639 172.963L54.6678 170.99L57.0172 169.634L58.5777 170.877L59.1475 170.548L54.0286 166.531L53.5057 166.833L54.4253 173.274L54.9639 172.963ZM54.2528 168.181L54.0574 167.211L54.7992 167.865L56.5763 169.285L54.5859 170.434L54.2528 168.181ZM60.9968 169.595C61.7383 169.167 61.839 168.422 61.6136 167.761L62.2039 168.783L62.7112 168.49L59.692 163.261L59.1846 163.554L60.6357 166.067C60.1761 165.541 59.4806 165.256 58.7391 165.684C57.7635 166.248 57.6242 167.358 58.3047 168.537C58.9896 169.723 60.0212 170.158 60.9968 169.595ZM58.8276 168.235C58.2238 167.189 58.464 166.415 59.1431 166.023C59.9002 165.586 60.5591 165.934 60.9196 166.559L61.3251 167.261C61.6857 167.886 61.6622 168.638 60.9051 169.075C60.226 169.467 59.436 169.289 58.8276 168.235ZM65.3891 166.944L64.6388 162.382L64.0924 162.698L64.5965 165.445L64.8594 166.73L63.8628 165.869L61.7352 164.059L61.1733 164.383L64.7491 167.314L65.3891 166.944ZM68.7936 165.083C69.8239 164.488 70.1081 163.304 69.4232 162.118C68.7382 160.931 67.5707 160.585 66.5404 161.18C65.5101 161.775 65.2336 162.955 65.9186 164.141C66.6036 165.327 67.7633 165.678 68.7936 165.083ZM68.5412 164.646C67.8075 165.069 67.0061 164.835 66.4338 163.843C65.8569 162.844 66.05 162.025 66.7837 161.602C67.5252 161.174 68.3312 161.416 68.908 162.415C69.4803 163.406 69.2827 164.218 68.5412 164.646ZM69.3838 158.748L68.9152 157.936L68.4 158.233L68.8687 159.045L69.3838 158.748ZM71.9344 163.165L69.7714 159.419L69.2562 159.716L71.4193 163.463L71.9344 163.165ZM74.3026 161.913C74.7865 161.633 75.0227 161.195 75.0289 160.827L74.5609 160.431C74.5893 160.769 74.4558 161.168 74.1202 161.362C73.7923 161.552 73.4257 161.565 73.1148 161.027L71.8125 158.771L73.0691 158.046L72.8393 157.648L71.5826 158.373L71.0509 157.452L70.7644 158.127L71.0753 158.666L70.4665 159.018L70.6963 159.416L71.3051 159.064L72.6886 161.46C73.0806 162.139 73.7328 162.242 74.3026 161.913ZM79.4116 158.848C81.0585 157.898 81.316 156.469 80.3606 154.814C79.4053 153.159 78.0393 152.668 76.3924 153.619L74.6674 154.615L77.6866 159.844L79.4116 158.848ZM76.5835 154.112C77.8791 153.364 78.9634 153.602 79.8377 155.116C80.7119 156.63 80.3757 157.688 79.08 158.436L77.9404 159.094L75.4439 154.77L76.5835 154.112ZM80.7716 152.173L80.3029 151.361L79.7877 151.659L80.2564 152.47L80.7716 152.173ZM83.3221 156.591L81.1591 152.844L80.644 153.142L82.807 156.888L83.3221 156.591ZM85.2001 153.966C86.0743 153.461 86.332 152.574 85.8813 151.793C85.6154 151.333 85.1917 151.067 84.7008 151.028L84.9079 149.837L84.2521 149.945L84.4705 151.026C84.2057 151.054 83.9321 151.139 83.659 151.297C82.7926 151.797 82.5271 152.689 82.9778 153.47C83.2527 153.946 83.6965 154.21 84.1908 154.237C84.0182 154.659 83.9643 155.106 84.1401 155.411C84.2708 155.637 84.4993 155.745 84.7974 155.666C84.5684 155.954 84.3335 156.413 84.5588 156.803C84.8562 157.318 85.6342 157.296 86.5864 156.746C87.7884 156.052 88.2181 155.138 87.817 154.443C87.5016 153.897 86.9425 153.866 86.2869 154.244L85.1239 154.916C84.718 155.15 84.521 155.097 84.3993 154.886C84.2957 154.707 84.3001 154.444 84.3361 154.236C84.6177 154.219 84.9113 154.133 85.2001 153.966ZM84.9703 153.568C84.4161 153.888 83.8063 153.751 83.4773 153.181C83.1483 152.611 83.3346 152.015 83.8888 151.695C84.4508 151.37 85.0606 151.507 85.3896 152.077C85.7186 152.647 85.5323 153.244 84.9703 153.568ZM86.3521 156.34C85.6418 156.75 85.1065 156.778 84.8947 156.411C84.755 156.169 84.8317 155.834 84.9514 155.608L86.4735 154.73C86.9184 154.473 87.2057 154.484 87.377 154.78C87.6248 155.21 87.2575 155.817 86.3521 156.34ZM86.3053 148.978L85.8367 148.166L85.3215 148.464L85.7902 149.275L86.3053 148.978ZM88.8559 153.396L86.6929 149.649L86.1777 149.947L88.3408 153.693L88.8559 153.396ZM91.2241 152.143C91.708 151.864 91.9442 151.425 91.9503 151.058L91.4824 150.662C91.5108 150.999 91.3773 151.399 91.0416 151.593C90.7138 151.782 90.3472 151.796 90.0363 151.257L88.7339 149.002L89.9906 148.276L89.7608 147.878L88.5041 148.603L87.9724 147.682L87.6858 148.358L87.9968 148.896L87.388 149.248L87.6178 149.646L88.2266 149.294L89.6101 151.691C90.0021 152.37 90.6543 152.472 91.2241 152.143ZM93.5405 150.795C94.2898 150.363 94.4402 149.506 94.2542 148.895L94.484 149.293C94.7589 149.769 95.1033 149.789 95.4779 149.573L95.8292 149.37L95.5633 148.909L95.3447 149.035C95.1652 149.139 95.0388 149.118 94.9262 148.923L93.9122 147.167C93.43 146.332 92.6844 146.086 91.8102 146.591C91.0141 147.05 90.7246 147.811 90.7158 148.336L91.2821 148.488C91.2384 147.961 91.4595 147.407 92.0215 147.083C92.6303 146.731 93.0849 146.906 93.4094 147.468L93.4274 147.499L92.3809 148.967C91.9931 149.503 91.8065 150.027 92.0904 150.519C92.3788 151.018 92.9239 151.151 93.5405 150.795ZM92.565 150.151C92.4028 149.87 92.482 149.575 92.7797 149.153L93.6638 147.872L94.0469 148.536C94.3398 149.043 94.1356 149.879 93.4409 150.28C93.0741 150.492 92.7453 150.463 92.565 150.151ZM97.1718 148.595L94.1526 143.365L93.6374 143.662L96.6567 148.892L97.1718 148.595ZM100.027 146.946L99.7308 144.973L102.08 143.617L103.641 144.86L104.21 144.531L99.0916 140.513L98.5686 140.815L99.4883 147.257L100.027 146.946ZM99.3158 142.164L99.1203 141.194L99.8622 141.848L101.639 143.268L99.6489 144.417L99.3158 142.164ZM105.468 142.265C106.342 141.76 106.6 140.872 106.149 140.092C105.883 139.631 105.459 139.366 104.968 139.327L105.176 138.135L104.52 138.243L104.738 139.324C104.473 139.352 104.2 139.438 103.927 139.595C103.06 140.095 102.795 140.988 103.245 141.768C103.52 142.244 103.964 142.508 104.458 142.535C104.286 142.957 104.232 143.405 104.408 143.709C104.538 143.936 104.767 144.043 105.065 143.964C104.836 144.253 104.601 144.711 104.826 145.101C105.124 145.616 105.902 145.594 106.854 145.044C108.056 144.35 108.486 143.436 108.085 142.741C107.769 142.195 107.21 142.164 106.555 142.543L105.392 143.214C104.986 143.448 104.789 143.396 104.667 143.185C104.563 143.005 104.568 142.743 104.604 142.535C104.885 142.518 105.179 142.431 105.468 142.265ZM105.238 141.867C104.684 142.186 104.074 142.049 103.745 141.48C103.416 140.91 103.602 140.313 104.156 139.993C104.718 139.669 105.328 139.806 105.657 140.376C105.986 140.945 105.8 141.542 105.238 141.867ZM106.62 144.638C105.909 145.048 105.374 145.077 105.162 144.71C105.023 144.468 105.099 144.132 105.219 143.907L106.741 143.028C107.186 142.771 107.473 142.782 107.645 143.079C107.892 143.508 107.525 144.116 106.62 144.638ZM110.169 141.195C110.965 140.735 111.244 140.064 111.243 139.45L110.719 139.264C110.767 139.725 110.678 140.328 109.921 140.765C109.18 141.193 108.402 141.018 107.83 140.099L110.687 138.45C110.658 138.383 110.62 138.281 110.566 138.187C109.912 137.055 108.876 136.738 107.853 137.328C106.839 137.914 106.568 139.049 107.271 140.266C107.987 141.507 109.123 141.799 110.169 141.195ZM108.097 137.75C108.784 137.353 109.492 137.516 110.025 138.332L107.621 139.72C107.205 138.837 107.41 138.146 108.097 137.75ZM113.141 139.375L111.888 137.205C111.514 136.557 111.5 135.795 112.289 135.34C112.936 134.966 113.434 135.178 113.785 135.787L115.178 138.199L115.693 137.901L114.233 135.373C113.737 134.514 112.985 134.365 112.244 134.793C111.494 135.226 111.363 135.989 111.581 136.674L110.978 135.628L110.462 135.926L112.625 139.672L113.141 139.375ZM118.316 136.491C119.253 135.95 119.523 135.066 119.234 134.223L118.621 134.296C118.908 134.973 118.794 135.642 118.076 136.057C117.335 136.485 116.537 136.238 115.964 135.247C115.388 134.248 115.573 133.433 116.314 133.005C117.032 132.591 117.673 132.835 118.116 133.422L118.486 132.927C117.901 132.256 117 132.047 116.071 132.584C115.009 133.197 114.738 134.331 115.441 135.549C116.144 136.767 117.263 137.099 118.316 136.491ZM121.804 136.132C122.312 135.839 122.521 135.354 122.392 134.627L121.557 129.521L121.018 129.831L121.564 132.94L121.737 133.871L121.026 133.251L118.599 131.228L118.052 131.544L121.517 134.372L121.801 134.198L121.877 134.654C121.979 135.209 121.855 135.499 121.551 135.675C121.207 135.873 120.875 135.784 120.543 135.569L120.471 136.111C120.773 136.311 121.297 136.425 121.804 136.132Z" fill="white"/>
<rect x="18.4674" y="111.948" width="56.3294" height="28.1647" transform="rotate(-30 18.4674 111.948)" stroke="white" stroke-width="0.563294"/>
<path d="M38.8203 119.192L37.5315 116.959L39.9667 115.553L39.7053 115.101L37.2701 116.507L36.0624 114.415L39.005 112.716L38.7436 112.263L35.2859 114.26L38.3051 119.489L38.8203 119.192ZM43.4911 116.599C44.2638 116.153 44.3834 115.387 44.1556 114.686L44.7729 115.755L45.2803 115.462L43.1172 111.715L42.6099 112.008L43.8581 114.17C44.2367 114.826 44.2534 115.576 43.4417 116.045C42.8017 116.414 42.3044 116.202 41.9574 115.601L40.5649 113.189L40.0576 113.482L41.5131 116.003C42.0133 116.869 42.7574 117.023 43.4911 116.599ZM46.8905 114.532L43.8712 109.303L43.3561 109.6L46.3753 114.83L46.8905 114.532ZM48.4988 113.604L45.4795 108.374L44.9644 108.672L47.9836 113.901L48.4988 113.604ZM50.8669 112.351C51.3508 112.072 51.587 111.633 51.5932 111.266L51.1253 110.87C51.1536 111.207 51.0201 111.607 50.6845 111.801C50.3567 111.99 49.9901 112.004 49.6791 111.465L48.3768 109.21L49.6334 108.484L49.4036 108.086L48.147 108.812L47.6152 107.89L47.3287 108.566L47.6396 109.104L47.0308 109.456L47.2606 109.854L47.8694 109.502L49.2529 111.899C49.645 112.578 50.2971 112.68 50.8669 112.351ZM50.4911 106.563L50.0224 105.751L49.5073 106.049L49.9759 106.861L50.4911 106.563ZM53.0417 110.981L50.8786 107.234L50.3635 107.532L52.5265 111.278L53.0417 110.981ZM54.65 110.052L53.3972 107.882C53.0232 107.235 53.0097 106.472 53.6732 106.089C54.2586 105.751 54.7321 105.905 55.1106 106.56L56.5076 108.98L57.0149 108.687L55.7622 106.517C55.3882 105.869 55.3747 105.107 56.0459 104.719C56.6235 104.386 57.0971 104.539 57.4756 105.195L58.8726 107.614L59.3877 107.317L57.9232 104.78C57.4275 103.922 56.7738 103.727 56.0557 104.141C55.3532 104.547 55.2258 105.318 55.457 106.006C54.9808 105.272 54.3619 105.119 53.6829 105.511C52.9882 105.912 52.8675 106.659 53.0908 107.352L52.4869 106.306L51.9718 106.603L54.1348 110.35L54.65 110.052ZM62.0447 105.887C62.8409 105.427 63.1196 104.757 63.1191 104.143L62.5951 103.956C62.643 104.418 62.554 105.021 61.7969 105.458C61.0554 105.886 60.2777 105.71 59.7057 104.792L62.5624 103.143C62.5342 103.076 62.4957 102.973 62.4416 102.879C61.7882 101.747 60.7516 101.43 59.7291 102.02C58.7144 102.606 58.4434 103.741 59.1464 104.959C59.8629 106.2 60.9988 106.491 62.0447 105.887ZM59.9725 102.442C60.6593 102.045 61.3677 102.209 61.9012 103.025L59.4972 104.413C59.0808 103.529 59.2856 102.839 59.9725 102.442Z" fill="white"/>
<rect x="75.0553" y="79.2771" width="56.3294" height="28.1647" transform="rotate(-30 75.0553 79.2771)" stroke="white" stroke-width="0.563294"/>
<path d="M98.8616 84.6307C100.345 83.7745 100.663 82.0191 99.7845 80.4971C98.9148 78.9907 97.2352 78.3889 95.7523 79.2451C94.2693 80.1013 93.9506 81.8567 94.8204 83.3631C95.6991 84.8851 97.3786 85.4869 98.8616 84.6307ZM98.59 84.1423C97.349 84.8588 96.098 84.3322 95.3589 83.0522C94.6289 81.7877 94.7939 80.4332 96.0349 79.7167C97.2682 79.0047 98.5237 79.5391 99.2537 80.8035C99.9928 82.0836 99.8233 83.4303 98.59 84.1423ZM102.799 82.2536L101.546 80.0837C101.172 79.4359 101.158 78.6735 101.947 78.2184C102.595 77.8444 103.092 78.0568 103.443 78.6656L104.836 81.0774L105.351 80.78L103.891 78.2511C103.395 77.3925 102.643 77.2438 101.902 77.6719C101.153 78.1045 101.021 78.8675 101.24 79.5529L100.636 78.507L100.121 78.8045L102.284 82.551L102.799 82.2536ZM107.782 79.4807C108.476 79.0796 108.9 78.4081 108.486 77.69C108.179 77.1593 107.682 77.0195 106.789 77.275L106.218 77.4385C105.595 77.6213 105.233 77.643 105.007 77.2528C104.782 76.8625 104.98 76.467 105.433 76.2056C106.018 75.8677 106.571 75.9233 107.035 76.3315L107.259 75.8174C106.765 75.3948 106.012 75.2987 105.216 75.7583C104.444 76.2044 104.163 76.9077 104.537 77.5556C104.924 78.2268 105.623 78.1566 106.238 77.9784L106.813 77.8026C107.388 77.6267 107.805 77.5734 108.03 77.9637C108.255 78.354 108.045 78.7462 107.545 79.0346C106.788 79.4717 106.076 79.3206 105.666 78.8808L105.451 79.3904C106.1 79.9935 107.017 79.9223 107.782 79.4807ZM107.87 73.4351L107.402 72.6233L106.887 72.9207L107.355 73.7325L107.87 73.4351ZM110.421 77.8528L108.258 74.1063L107.743 74.4037L109.906 78.1502L110.421 77.8528ZM112.789 76.6001C113.273 76.3207 113.509 75.8825 113.515 75.5147L113.047 75.1188C113.076 75.4563 112.942 75.856 112.607 76.0497C112.279 76.239 111.912 76.2529 111.601 75.7144L110.299 73.4587L111.556 72.7331L111.326 72.3351L110.069 73.0606L109.537 72.1396L109.251 72.815L109.562 73.3535L108.953 73.705L109.183 74.1031L109.792 73.7516L111.175 76.1478C111.567 76.8268 112.219 76.929 112.789 76.6001ZM115.773 74.8669C116.569 74.4073 116.848 73.7364 116.847 73.1227L116.323 72.9361C116.371 73.3976 116.282 74.0005 115.525 74.4376C114.784 74.8657 114.006 74.6903 113.434 73.7717L116.291 72.1224C116.262 72.0555 116.224 71.9528 116.17 71.8591C115.516 70.7274 114.48 70.41 113.457 71.0003C112.443 71.5862 112.172 72.7209 112.875 73.9385C113.591 75.1796 114.727 75.4708 115.773 74.8669ZM113.701 71.4218C114.388 71.0253 115.096 71.1887 115.629 72.0046L113.225 73.3926C112.809 72.509 113.014 71.8184 113.701 71.4218Z" fill="white"/>
<rect x="131.643" y="46.6062" width="56.3294" height="28.1647" transform="rotate(-30 131.643 46.6062)" stroke="white" stroke-width="0.563294"/>
<path d="M154.571 53.4035L154.161 52.6933C155.032 52.1282 155.442 51.2354 154.938 50.3612C154.383 49.4012 153.477 49.5081 152.565 49.7849L152.494 49.8053L151.372 47.8618C151.954 47.6815 152.531 47.7963 153.047 48.2579L153.278 47.6667C152.65 47.1552 151.877 47.0603 151.083 47.3623L150.651 46.613L150.245 46.8473L150.655 47.5576C150.631 47.5711 150.616 47.5801 150.592 47.5937C149.71 48.1029 149.19 49.0588 149.727 49.9876C150.254 50.9008 151.141 50.8152 151.974 50.5633L152.327 50.4533L153.471 52.4359C152.802 52.7183 151.936 52.7501 151.266 52.0958L151.067 52.669C151.876 53.3675 152.87 53.3239 153.746 52.912L154.165 53.6379L154.571 53.4035ZM151.863 49.9926C151.089 50.2207 150.572 50.2074 150.243 49.6376C149.914 49.0678 150.232 48.4471 150.864 48.0821C150.887 48.0686 150.911 48.055 150.934 48.0415L152.034 49.946L151.863 49.9926ZM154.432 50.6743C154.788 51.2909 154.449 51.8401 153.886 52.2171L152.787 50.3127C153.593 50.0866 154.098 50.0967 154.432 50.6743ZM160.251 49.0834L159.99 48.6307L157.765 49.915L157.128 50.3248L157.393 49.5578L157.843 47.9762C158.05 47.2532 158.38 46.0947 157.893 45.2517C157.434 44.4556 156.609 44.1093 155.595 44.6952C154.4 45.3846 154.137 46.6401 154.841 47.6073L155.493 47.6368C154.756 46.6675 154.895 45.7547 155.847 45.2049C156.558 44.7948 157.109 45.1009 157.388 45.5849C157.744 46.2015 157.572 46.9669 157.345 47.8164L156.571 50.6772L156.801 51.0752L160.251 49.0834ZM163.056 47.5682C164.461 46.757 164.444 45.1954 163.565 43.6734C162.695 42.167 161.352 41.3714 159.947 42.1826C158.542 42.9937 158.566 44.5508 159.436 46.0572C160.315 47.5793 161.651 48.3793 163.056 47.5682ZM162.784 47.0797C161.676 47.7196 160.701 47.0231 159.967 45.7508C159.241 44.4942 159.121 43.2941 160.229 42.6542C161.338 42.0143 162.309 42.7232 163.034 43.9798C163.769 45.2521 163.893 46.4398 162.784 47.0797ZM167.98 44.7253C169.385 43.9141 169.368 42.3525 168.489 40.8305C167.619 39.3241 166.276 38.5285 164.871 39.3397C163.466 40.1508 163.49 41.708 164.36 43.2144C165.239 44.7364 166.575 45.5364 167.98 44.7253ZM167.708 44.2369C166.6 44.8768 165.625 44.1802 164.891 42.9079C164.165 41.6513 164.045 40.4512 165.153 39.8113C166.262 39.1714 167.233 39.8803 167.958 41.1369C168.693 42.4092 168.817 43.597 167.708 44.2369ZM171.555 42.5575L170.568 40.8481L170.974 39.1359L174.474 40.8721L175.106 40.5071L171.129 38.5573L171.907 35.3812L171.259 35.7552L170.449 39.1472L170.193 40.2528L169.716 39.3729L168.535 37.328L168.02 37.6254L171.039 42.8549L171.555 42.5575Z" fill="white"/>
<path d="M199.958 127.627L199.507 126.846L197.501 128.005L196.765 128.533L197.113 127.729L197.469 126.67C197.758 125.889 198.088 124.731 197.601 123.888C197.105 123.029 196.23 122.702 195.176 123.311C193.974 124.005 193.565 125.261 194.192 126.293L195.24 126.396C194.612 125.416 194.812 124.645 195.585 124.199C196.092 123.906 196.495 124.1 196.712 124.474C196.996 124.966 196.866 125.571 196.643 126.356L195.831 129.114L196.219 129.785L199.958 127.627ZM203.901 125.35L203.221 124.171L204.103 123.662L203.661 122.897L202.779 123.406L200.882 120.12L199.953 120.657L199.34 125.507L199.732 126.186L202.347 124.676L203.027 125.855L203.901 125.35ZM200.258 124.862L200.666 121.765L201.905 123.911L200.258 124.862ZM207.562 123.236L207.3 121.629L209.509 120.354L210.77 121.384L211.738 120.825L206.674 116.777L205.659 117.362L206.633 123.773L207.562 123.236ZM206.87 118.974L206.606 117.867L207.432 118.649L208.779 119.755L207.147 120.697L206.87 118.974ZM213.95 121.484L212.526 119.017C212.989 119.531 213.602 119.853 214.359 119.416C215.296 118.875 215.452 117.776 214.744 116.55C214.037 115.325 213.007 114.91 212.086 115.442C211.328 115.879 211.286 116.58 211.503 117.246L210.918 116.231L210.043 116.736L213.076 121.989L213.95 121.484ZM212.148 118.362L211.877 117.893C211.517 117.269 211.536 116.707 212.152 116.351C212.699 116.035 213.351 116.21 213.847 117.069C214.342 117.927 214.168 118.58 213.621 118.895C213.005 119.251 212.508 118.986 212.148 118.362ZM218.28 118.984L216.856 116.518C217.319 117.031 217.932 117.354 218.689 116.917C219.625 116.376 219.781 115.276 219.074 114.051C218.366 112.825 217.336 112.411 216.415 112.942C215.658 113.38 215.615 114.081 215.833 114.746L215.247 113.731L214.373 114.236L217.406 119.489L218.28 118.984ZM216.477 115.862L216.207 115.394C215.846 114.769 215.865 114.207 216.482 113.851C217.028 113.536 217.681 113.71 218.176 114.569C218.672 115.428 218.497 116.08 217.951 116.396C217.334 116.752 216.838 116.487 216.477 115.862ZM221.771 115.033L218.752 109.803L217.878 110.308L220.897 115.538L221.771 115.033ZM221.064 109.655L220.551 108.765L219.676 109.269L220.19 110.159L221.064 109.655ZM223.57 113.994L221.375 110.193L220.501 110.698L222.696 114.499L223.57 113.994ZM226.226 112.565C227.069 112.078 227.363 111.399 227.399 110.795L226.536 110.544C226.581 110.945 226.482 111.459 225.819 111.843C225.218 112.189 224.608 112.052 224.169 111.4L226.885 109.832C226.856 109.745 226.777 109.572 226.696 109.432C226.087 108.378 225.018 107.986 223.878 108.644C222.809 109.261 222.523 110.478 223.212 111.672C223.897 112.858 225.094 113.219 226.226 112.565ZM224.284 109.346C224.862 109.013 225.394 109.142 225.804 109.707L223.852 110.834C223.567 110.177 223.745 109.657 224.284 109.346ZM230.101 110.338C230.858 109.901 230.885 109.209 230.672 108.551L231.254 109.558L232.128 109.053L229.109 103.824L228.234 104.329L229.649 106.779C229.182 106.258 228.553 105.945 227.796 106.382C226.875 106.914 226.719 108.013 227.427 109.239C228.134 110.464 229.165 110.879 230.101 110.338ZM228.324 108.72C227.833 107.87 228.004 107.209 228.55 106.894C229.167 106.538 229.663 106.803 230.023 107.427L230.298 107.903C230.659 108.528 230.636 109.082 230.027 109.434C229.473 109.754 228.82 109.579 228.324 108.72Z" fill="white"/>
<path d="M187.112 129.162C187.08 129.174 187.046 129.194 187.019 129.215C186.332 129.58 185.477 129.338 185.083 128.655C184.68 127.958 184.917 127.073 185.615 126.67C186.312 126.267 187.2 126.509 187.6 127.202C187.989 127.888 187.771 128.749 187.112 129.162Z" stroke="white" stroke-width="0.844941" stroke-linecap="round" stroke-linejoin="round"/>
<path d="M188.66 133.003C189.393 132.73 190.062 132.187 190.379 131.542C190.802 130.687 190.369 129.935 189.416 129.874C188.694 129.829 187.88 130.143 187.279 130.646" stroke="white" stroke-width="0.844941" stroke-linecap="round" stroke-linejoin="round"/>
<path d="M181.243 132.55C181.27 132.528 181.304 132.509 181.336 132.497C181.995 132.084 182.214 131.223 181.819 130.54C181.417 129.842 180.532 129.605 179.834 130.008C179.136 130.41 178.902 131.3 179.302 131.993C179.701 132.673 180.556 132.915 181.243 132.55Z" stroke="white" stroke-width="0.844941" stroke-linecap="round" stroke-linejoin="round"/>
<path d="M183.796 135.811C183.193 136.31 182.389 136.618 181.671 136.57C180.719 136.509 180.285 135.757 180.708 134.902C181.03 134.254 181.709 133.706 182.445 133.437" stroke="white" stroke-width="0.844941" stroke-linecap="round" stroke-linejoin="round"/>
<path d="M186.289 134.496C186.257 134.508 186.223 134.528 186.196 134.549C185.509 134.914 184.654 134.672 184.26 133.989C183.857 133.292 184.094 132.407 184.792 132.004C185.489 131.601 186.377 131.843 186.777 132.536C187.166 133.222 186.951 134.088 186.289 134.496Z" stroke="white" stroke-width="0.844941" stroke-linecap="round" stroke-linejoin="round"/>
<path d="M185.757 136.852C185.334 137.708 185.767 138.459 186.72 138.521C187.802 138.592 189.08 137.854 189.559 136.881C189.982 136.026 189.548 135.274 188.596 135.213C187.522 135.144 186.239 135.884 185.757 136.852Z" stroke="white" stroke-width="0.844941" stroke-linecap="round" stroke-linejoin="round"/>
</g>
<defs>
<linearGradient id="paint0_linear_1_598" x1="90.569" y1="188.049" x2="90.569" y2="216.214" gradientUnits="userSpaceOnUse">
<stop stop-color="#CE9FFC"/>
<stop offset="0.505208" stop-color="#A582F7"/>
<stop offset="1" stop-color="#7367F0"/>
</linearGradient>
<clipPath id="clip0_1_598">
<rect width="214" height="143" fill="white" transform="translate(0 107) rotate(-30)"/>
</clipPath>
</defs>
</svg>
