<svg width="350" height="235" viewBox="0 0 350 235" fill="none" xmlns="http://www.w3.org/2000/svg">
<g clip-path="url(#clip0_1_367)">
<rect width="351" height="235" fill="#111111"/>
<path d="M305.505 154.873C304.093 153.5 302.111 152.877 300.173 153.196C298.23 153.513 296.553 154.733 295.652 156.482C292.553 162.503 288.617 168.035 283.986 172.925C284.448 169.393 284.68 165.839 284.68 162.275C284.68 155.438 283.764 148.402 281.956 141.36C276.011 118.23 260.421 98.669 239.186 87.6934C237.337 86.7382 235.134 86.7717 233.315 87.7829C231.496 88.7944 230.305 90.649 230.142 92.7235C228.487 113.743 217.66 132.866 200.421 145.202C200.193 145.366 199.966 145.533 199.74 145.698C199.271 146.041 198.828 146.366 198.415 146.639C198.351 146.682 198.286 146.725 198.224 146.771C187.382 154.533 178.436 164.88 172.352 176.697C166.17 188.717 163.036 201.616 163.036 215.033C163.036 221.869 163.952 228.905 165.759 235.948C175.297 273.072 208.706 298.999 247.002 298.999C293.299 298.999 330.964 261.332 330.964 215.033C330.964 192.202 321.922 170.836 305.505 154.873Z" fill="white" fill-opacity="0.02"/>
<circle cx="241.218" cy="212.273" r="25.0545" fill="#111111"/>
<rect x="22" y="166" width="92" height="46" rx="5" fill="url(#paint0_linear_1_367)"/>
<path d="M48.242 193L49.1888 190.5H53.3752L54.3219 193H56.1563L52.2805 183.089H50.3574L46.4817 193H48.242ZM50.7568 186.373L51.2894 184.583L51.8219 186.373L52.8278 189.05H49.7361L50.7568 186.373ZM58.7607 195.751V191.077C58.9974 192.186 59.6039 193.148 61.0388 193.148C62.814 193.148 63.9383 191.713 63.9383 189.391C63.9383 187.068 62.814 185.633 61.0684 185.633C59.6335 185.633 58.9974 186.595 58.7607 187.719V185.796H57.1039V195.751H58.7607ZM58.7607 189.834V188.947C58.7607 187.763 59.2489 186.979 60.4175 186.979C61.453 186.979 62.2371 187.763 62.2371 189.391C62.2371 191.018 61.453 191.802 60.4175 191.802C59.2489 191.802 58.7607 191.018 58.7607 189.834ZM66.9662 195.751V191.077C67.2029 192.186 67.8094 193.148 69.2443 193.148C71.0195 193.148 72.1437 191.713 72.1437 189.391C72.1437 187.068 71.0195 185.633 69.2739 185.633C67.839 185.633 67.2029 186.595 66.9662 187.719V185.796H65.3094V195.751H66.9662ZM66.9662 189.834V188.947C66.9662 187.763 67.4544 186.979 68.623 186.979C69.6585 186.979 70.4425 187.763 70.4425 189.391C70.4425 191.018 69.6585 191.802 68.623 191.802C67.4544 191.802 66.9662 191.018 66.9662 189.834ZM75.1716 193V183.089H73.5148V193H75.1716ZM78.3295 195.47C79.4981 195.47 80.3413 194.953 80.8591 193.503L83.5218 185.796H81.6875L80.4005 189.879L79.8827 191.802L79.365 189.879L78.0632 185.796H76.2437L78.6253 192.556H79.646L79.5129 192.956C79.2466 193.754 78.8916 194.006 78.3295 194.006C77.6638 194.006 77.22 193.592 76.8354 193.044L76.0514 194.376C76.4508 194.938 77.294 195.47 78.3295 195.47Z" fill="white"/>
<path d="M29.5245 112.222C33.5851 112.222 35.4712 110.158 35.4712 105.654V97.1331H32.986V105.676C32.986 108.627 32.0319 109.825 29.5467 109.825C27.1058 109.825 26.1073 108.627 26.1073 105.676V97.1331H23.6221V105.654C23.6221 110.158 25.5526 112.222 29.5245 112.222ZM39.5298 112L43.3464 105.92L47.2517 112H50.4026L45.1881 104.456L50.0698 97.1331H47.0742L43.4573 102.947L39.907 97.1331H36.7339L41.6378 104.322L36.4011 112H39.5298ZM62.1992 112C66.8146 112 69.2776 109.16 69.2776 104.567C69.2776 99.9733 66.7924 97.1331 62.1992 97.1331H56.5853V112H62.1992ZM61.8886 99.352C64.9729 99.352 66.6593 100.839 66.6593 104.567C66.6593 108.294 64.9729 109.781 61.9108 109.781H59.0927V99.352H61.8886ZM76.4348 112.222C78.8312 112.222 80.2957 111.135 81.1167 109.892L79.5856 108.294C79.1862 109.204 78.343 110.18 76.4569 110.18C74.7484 110.18 73.6167 109.138 73.4836 107.207H81.2055C81.2499 106.985 81.2942 106.519 81.2942 106.12C81.2942 103.124 79.4969 100.972 76.2572 100.972C73.2173 100.972 71.1093 103.213 71.1093 106.608C71.1093 109.981 73.2173 112.222 76.4348 112.222ZM76.2572 102.969C77.8993 102.969 78.8756 103.901 79.0531 105.609H73.5058C73.7055 103.856 74.7262 102.969 76.2572 102.969ZM87.7383 112.222C90.0238 112.222 91.8212 111.157 91.8212 109.027C91.8212 107.473 90.9336 106.497 88.515 105.876L87.2058 105.543C85.7413 105.166 85.1644 104.877 85.1644 104.101C85.1644 103.368 85.8079 102.969 86.762 102.969C88.1599 102.969 89.3138 103.679 90.0682 104.877L91.5327 103.324C90.867 102.104 89.2472 100.994 86.9395 100.994C84.4543 100.994 82.8345 102.214 82.8345 104.234C82.8345 106.209 84.4099 106.963 86.1185 107.362L87.5608 107.717C88.7591 108.006 89.5801 108.272 89.5801 109.071C89.5801 109.848 88.8922 110.225 87.8271 110.225C85.8966 110.225 84.5653 109.115 83.9661 108.028L82.5016 109.581C83.3227 111.29 85.4306 112.222 87.7383 112.222ZM96.2731 99.6627V97.1331H93.7879V99.6627H96.2731ZM96.2731 112V101.194H93.7879V112H96.2731ZM103.362 108.76C106.025 108.76 107.822 107.163 107.822 104.877C107.822 103.524 107.201 102.414 106.136 101.726L108.155 99.5074L105.758 98.6864L105.226 101.283C104.671 101.083 104.05 100.972 103.362 100.972C100.699 100.972 98.8797 102.592 98.8797 104.877C98.8797 106.253 99.5453 107.385 100.633 108.05C99.6341 108.738 98.7909 109.692 98.7909 110.669C98.7909 111.49 99.3013 112 100.078 112.222C99.035 112.466 98.0587 113.021 98.0587 114.041C98.0587 115.395 99.8116 116.349 102.829 116.349C106.757 116.349 108.754 114.796 108.754 112.754C108.754 111.135 107.578 110.269 105.426 110.269H101.942C100.943 110.269 100.655 109.981 100.655 109.426C100.655 109.049 100.899 108.627 101.099 108.294C101.742 108.605 102.519 108.76 103.362 108.76ZM103.362 106.985C102.186 106.985 101.254 106.231 101.254 104.877C101.254 103.524 102.186 102.769 103.362 102.769C104.538 102.769 105.47 103.524 105.47 104.877C105.47 106.231 104.538 106.985 103.362 106.985ZM102.94 114.485C100.965 114.485 100.078 114.019 100.078 113.22C100.078 112.843 100.344 112.488 100.588 112.244H105.093C106.047 112.244 106.513 112.488 106.513 113.065C106.513 113.975 105.27 114.485 102.94 114.485ZM112.72 112V105.942C112.72 104.167 113.341 102.991 115.161 102.991C116.825 102.991 117.269 103.901 117.269 105.232V112H119.776V104.478C119.776 102.237 118.489 100.972 116.381 100.972C114.229 100.972 113.12 102.436 112.72 104.145V101.194H110.235V112H112.72ZM127.076 112.222C129.472 112.222 130.937 111.135 131.758 109.892L130.227 108.294C129.827 109.204 128.984 110.18 127.098 110.18C125.39 110.18 124.258 109.138 124.125 107.207H131.847C131.891 106.985 131.935 106.519 131.935 106.12C131.935 103.124 130.138 100.972 126.898 100.972C123.859 100.972 121.751 103.213 121.751 106.608C121.751 109.981 123.859 112.222 127.076 112.222ZM126.898 102.969C128.54 102.969 129.517 103.901 129.694 105.609H124.147C124.347 103.856 125.367 102.969 126.898 102.969ZM136.6 112V106.053C136.6 104.256 137.754 102.836 138.996 102.836C139.728 102.836 140.017 103.324 140.017 103.923C140.017 104.544 139.684 105.254 139.329 105.609H141.881C142.081 105.277 142.369 104.5 142.369 103.457C142.369 101.859 141.37 100.972 140.017 100.972C138.086 100.972 136.999 102.525 136.6 104.256V101.194H134.115V112H136.6Z" fill="white"/>
<path d="M23.3723 139L24.5705 135.953H29.0232L30.2214 139H31.3013L27.322 129.089H26.3309L22.3516 139H23.3723ZM26.2865 131.618L26.8043 130.08L27.322 131.618L28.683 135.095H24.9108L26.2865 131.618ZM34.7124 139.163C36.1177 139.163 36.8721 138.186 37.094 137.062V139H38.0556V129.089H37.094V133.852C36.8721 132.728 36.1177 131.751 34.7124 131.751C32.8632 131.751 31.7538 133.216 31.7538 135.45C31.7538 137.698 32.8632 139.163 34.7124 139.163ZM32.7449 135.45C32.7449 133.467 33.7212 132.565 35.0082 132.565C36.4431 132.565 37.094 133.601 37.094 134.784V136.115C37.094 137.299 36.4431 138.349 35.0082 138.349C33.7212 138.349 32.7449 137.447 32.7449 135.45ZM43.1308 139L45.8083 131.899H44.7728L43.2343 136.219L42.5539 138.26L41.8438 136.219L40.3053 131.899H39.2403L41.9178 139H43.1308ZM49.4978 139.148C51.4504 139.148 52.8262 137.698 52.8262 135.45C52.8262 133.201 51.4504 131.751 49.4978 131.751C47.5451 131.751 46.1842 133.201 46.1842 135.45C46.1842 137.698 47.5451 139.148 49.4978 139.148ZM49.4978 138.32C48.1072 138.32 47.1605 137.328 47.1605 135.45C47.1605 133.556 48.1072 132.55 49.4978 132.55C50.9031 132.55 51.8498 133.556 51.8498 135.45C51.8498 137.328 50.9031 138.32 49.4978 138.32ZM55.5359 130.627V129.089H54.5596V130.627H55.5359ZM55.5359 139V131.899H54.5596V139H55.5359ZM59.9302 139.163C60.8474 139.163 61.5427 138.734 61.8533 138.216L61.5131 137.269C61.2764 137.772 60.7587 138.231 60.1226 138.231C59.5013 138.231 58.9687 137.95 58.9687 136.929V132.654H61.3504V131.899H58.9687V130.154L58.0072 130.879V131.899H56.8533V132.654H58.0072V137.195C58.0072 138.482 58.8504 139.163 59.9302 139.163ZM69.7071 139C72.8284 139 74.3669 137.18 74.3669 134.044C74.3669 130.908 72.8284 129.089 69.7071 129.089H66.4379V139H69.7071ZM69.574 129.947C72.0296 129.947 73.3757 131.175 73.3757 134.044C73.3757 136.914 72.0296 138.142 69.574 138.142H67.4142V129.947H69.574ZM77.1186 130.627V129.089H76.1423V130.627H77.1186ZM77.1186 139V131.899H76.1423V139H77.1186ZM81.9419 136.811C83.5987 136.811 84.6934 135.76 84.6934 134.281C84.6934 133.408 84.3088 132.683 83.6431 132.225L84.9153 130.701L83.8946 130.317L83.3176 132.033C82.9182 131.855 82.4596 131.751 81.9419 131.751C80.2999 131.751 79.1904 132.802 79.1904 134.281C79.1904 135.183 79.6046 135.923 80.2851 136.367C79.6934 136.825 79.2496 137.417 79.2496 137.994C79.2496 138.423 79.4863 138.763 79.9744 138.896C79.4123 139.118 78.7022 139.577 78.7022 140.317C78.7022 141.293 79.8265 141.899 81.6312 141.899C83.9094 141.899 85.2703 140.953 85.2703 139.636C85.2703 138.601 84.5011 138.098 83.2585 138.098H81.0543C80.2851 138.098 80.0484 137.861 80.0484 137.462C80.0484 137.121 80.2703 136.751 80.4922 136.485C80.9064 136.692 81.3946 136.811 81.9419 136.811ZM81.9419 136.056C80.8916 136.056 80.1372 135.361 80.1372 134.281C80.1372 133.201 80.8916 132.506 81.9419 132.506C83.007 132.506 83.7614 133.201 83.7614 134.281C83.7614 135.361 83.007 136.056 81.9419 136.056ZM81.6312 141.13C80.2851 141.13 79.5011 140.731 79.5011 140.036C79.5011 139.577 79.8857 139.163 80.2407 138.941H83.1253C83.9685 138.941 84.3679 139.192 84.3679 139.754C84.3679 140.568 83.3472 141.13 81.6312 141.13ZM87.6065 130.627V129.089H86.6302V130.627H87.6065ZM87.6065 139V131.899H86.6302V139H87.6065ZM92.0008 139.163C92.918 139.163 93.6133 138.734 93.9239 138.216L93.5837 137.269C93.347 137.772 92.8293 138.231 92.1932 138.231C91.5719 138.231 91.0393 137.95 91.0393 136.929V132.654H93.421V131.899H91.0393V130.154L90.0778 130.879V131.899H88.9239V132.654H90.0778V137.195C90.0778 138.482 90.921 139.163 92.0008 139.163ZM96.3996 139.148C97.8197 139.148 98.7368 138.053 98.9735 137.033V137.787C98.9735 138.689 99.4469 139 100.157 139H100.823V138.127H100.408C100.068 138.127 99.9055 137.994 99.9055 137.624V134.296C99.9055 132.713 99.0475 131.751 97.3907 131.751C95.8818 131.751 94.8463 132.595 94.4025 133.334L95.083 134.015C95.4528 133.231 96.222 132.624 97.2871 132.624C98.441 132.624 98.9439 133.246 98.9439 134.311V134.37L96.2516 135.598C95.2605 136.041 94.5652 136.633 94.5652 137.565C94.5652 138.512 95.2309 139.148 96.3996 139.148ZM95.5416 137.432C95.5416 136.899 95.8966 136.544 96.6658 136.189L98.9735 135.095V136.352C98.9735 137.314 97.9972 138.334 96.6806 138.334C95.9853 138.334 95.5416 138.024 95.5416 137.432ZM103.367 139V129.089H102.391V139H103.367ZM108.778 139L109.977 135.953H114.429L115.627 139H116.707L112.728 129.089H111.737L107.758 139H108.778ZM111.693 131.618L112.21 130.08L112.728 131.618L114.089 135.095H110.317L111.693 131.618ZM120.354 136.811C122.011 136.811 123.106 135.76 123.106 134.281C123.106 133.408 122.721 132.683 122.056 132.225L123.328 130.701L122.307 130.317L121.73 132.033C121.331 131.855 120.872 131.751 120.354 131.751C118.712 131.751 117.603 132.802 117.603 134.281C117.603 135.183 118.017 135.923 118.698 136.367C118.106 136.825 117.662 137.417 117.662 137.994C117.662 138.423 117.899 138.763 118.387 138.896C117.825 139.118 117.115 139.577 117.115 140.317C117.115 141.293 118.239 141.899 120.044 141.899C122.322 141.899 123.683 140.953 123.683 139.636C123.683 138.601 122.914 138.098 121.671 138.098H119.467C118.698 138.098 118.461 137.861 118.461 137.462C118.461 137.121 118.683 136.751 118.905 136.485C119.319 136.692 119.807 136.811 120.354 136.811ZM120.354 136.056C119.304 136.056 118.55 135.361 118.55 134.281C118.55 133.201 119.304 132.506 120.354 132.506C121.419 132.506 122.174 133.201 122.174 134.281C122.174 135.361 121.419 136.056 120.354 136.056ZM120.044 141.13C118.698 141.13 117.914 140.731 117.914 140.036C117.914 139.577 118.298 139.163 118.653 138.941H121.538C122.381 138.941 122.78 139.192 122.78 139.754C122.78 140.568 121.76 141.13 120.044 141.13ZM127.915 139.148C129.424 139.148 130.371 138.423 130.874 137.55L130.282 136.855C129.971 137.55 129.35 138.334 127.915 138.334C126.51 138.334 125.548 137.447 125.489 135.672H130.903C130.918 135.553 130.948 135.376 130.948 135.198C130.948 133.053 129.734 131.751 127.797 131.751C125.874 131.751 124.557 133.142 124.557 135.45C124.557 137.802 125.933 139.148 127.915 139.148ZM127.797 132.55C129.098 132.55 129.971 133.364 130.06 134.962H125.504C125.637 133.364 126.495 132.55 127.797 132.55ZM133.632 139V134.888C133.632 133.66 134.239 132.565 135.733 132.565C136.961 132.565 137.493 133.275 137.493 134.429V139H138.469V134.207C138.469 132.58 137.523 131.751 136.117 131.751C134.697 131.751 133.884 132.728 133.632 133.882V131.899H132.656V139H133.632ZM143.356 139.148C145.131 139.148 146.241 138.112 146.522 136.678L145.59 136.278C145.442 137.476 144.732 138.334 143.371 138.334C141.966 138.334 141.034 137.328 141.034 135.45C141.034 133.556 141.966 132.55 143.371 132.55C144.732 132.55 145.442 133.423 145.59 134.621L146.522 134.222C146.241 132.787 145.131 131.751 143.371 131.751C141.359 131.751 140.043 133.142 140.043 135.45C140.043 137.757 141.359 139.148 143.356 139.148ZM148.609 141.5C149.57 141.5 150.266 140.982 150.68 139.843L153.683 131.899H152.662L150.887 136.766L150.369 138.231L149.866 136.766L148.076 131.899H147.041L149.644 138.763L150.192 138.749L149.925 139.459C149.615 140.331 149.2 140.642 148.624 140.642C147.973 140.642 147.573 140.243 147.277 139.666L146.73 140.376C146.996 140.908 147.647 141.5 148.609 141.5Z" fill="white"/>
<rect x="22" y="22" width="92" height="46" rx="5" stroke="white" stroke-width="0.924558"/>
<path d="M42.2473 49V44.7692H46.8627V43.9112H42.2473V39.9467H47.8242V39.0887H41.2709V49H42.2473ZM51.0143 49.1479C52.4788 49.1479 53.2776 48.1568 53.5291 46.9734V49H54.4906V41.8994H53.5291V45.997C53.5291 47.2396 52.9374 48.3195 51.3989 48.3195C50.1859 48.3195 49.6533 47.6095 49.6533 46.4704V41.8994H48.6918V46.6775C48.6918 48.3195 49.6237 49.1479 51.0143 49.1479ZM57.5423 49V39.0887H56.566V49H57.5423ZM60.5905 49V39.0887H59.6142V49H60.5905ZM64.9848 49.1627C65.902 49.1627 66.5972 48.7337 66.9079 48.216L66.5676 47.2692C66.331 47.7722 65.8132 48.2308 65.1771 48.2308C64.5558 48.2308 64.0233 47.9497 64.0233 46.929V42.6538H66.4049V41.8994H64.0233V40.1538L63.0617 40.8787V41.8994H61.9079V42.6538H63.0617V47.1953C63.0617 48.4822 63.9049 49.1627 64.9848 49.1627ZM69.2004 40.6272V39.0887H68.2241V40.6272H69.2004ZM69.2004 49V41.8994H68.2241V49H69.2004ZM72.2486 49V44.8876C72.2486 43.6598 72.8551 42.5651 74.1125 42.5651C75.222 42.5651 75.7693 43.1716 75.7693 44.4142V49H76.7308V44.8876C76.7308 43.6598 77.3374 42.5651 78.6096 42.5651C79.7042 42.5651 80.2516 43.1716 80.2516 44.4142V49H81.2279V44.1923C81.2279 42.5651 80.4587 41.7515 79.0977 41.7515C77.7664 41.7515 76.9527 42.7426 76.7161 43.9112C76.6421 42.4763 75.8877 41.7515 74.6007 41.7515C73.2841 41.7515 72.5001 42.713 72.2486 43.8816V41.8994H71.2723V49H72.2486ZM86.1782 49.1479C87.6871 49.1479 88.6338 48.4231 89.1368 47.5503L88.5451 46.855C88.2344 47.5503 87.6131 48.3343 86.1782 48.3343C84.7729 48.3343 83.8113 47.4467 83.7522 45.6716H89.1664C89.1812 45.5532 89.2108 45.3757 89.2108 45.1982C89.2108 43.0532 87.9977 41.7515 86.0599 41.7515C84.1368 41.7515 82.8202 43.142 82.8202 45.4497C82.8202 47.8018 84.196 49.1479 86.1782 49.1479ZM86.0599 42.5503C87.3616 42.5503 88.2344 43.3639 88.3232 44.9615H83.767C83.9001 43.3639 84.7581 42.5503 86.0599 42.5503Z" fill="white"/>
<rect x="129" y="22" width="92" height="46" rx="5" stroke="white" stroke-width="0.924558"/>
<path d="M157.829 49.1479C160.64 49.1479 162.533 46.9142 162.533 44.0296C162.533 41.1745 160.64 38.9408 157.829 38.9408C155.018 38.9408 153.125 41.1745 153.125 44.0296C153.125 46.9142 155.018 49.1479 157.829 49.1479ZM157.844 48.2308C155.492 48.2308 154.146 46.4556 154.146 44.0296C154.146 41.6331 155.492 39.8432 157.844 39.8432C160.181 39.8432 161.527 41.6331 161.527 44.0296C161.527 46.4556 160.181 48.2308 157.844 48.2308ZM165.376 49V44.8876C165.376 43.6598 165.983 42.5651 167.477 42.5651C168.705 42.5651 169.237 43.2751 169.237 44.429V49H170.213V44.2071C170.213 42.5799 169.267 41.7515 167.861 41.7515C166.441 41.7515 165.628 42.7278 165.376 43.8816V41.8994H164.4V49H165.376ZM174.735 49.1479C176.052 49.1479 177.205 48.5414 177.205 47.1805C177.205 46.1746 176.614 45.568 175.134 45.1982L174.188 44.9615C173.152 44.7101 172.62 44.4438 172.62 43.7041C172.62 42.9645 173.226 42.5651 174.084 42.5651C175.194 42.5651 175.933 43.0976 176.259 44.0592L176.998 43.5118C176.643 42.5059 175.652 41.7515 174.143 41.7515C172.679 41.7515 171.702 42.5207 171.702 43.7485C171.702 45.0207 172.753 45.4941 173.773 45.7456L174.735 45.9674C175.696 46.1893 176.333 46.4556 176.333 47.1953C176.333 47.9349 175.711 48.3195 174.765 48.3195C173.33 48.3195 172.442 47.5207 172.22 46.5592L171.495 47.1065C171.924 48.497 173.285 49.1479 174.735 49.1479ZM179.822 40.6272V39.0887H178.846V40.6272H179.822ZM179.822 49V41.8994H178.846V49H179.822ZM184.217 49.1627C185.134 49.1627 185.829 48.7337 186.14 48.216L185.8 47.2692C185.563 47.7722 185.045 48.2308 184.409 48.2308C183.788 48.2308 183.255 47.9497 183.255 46.929V42.6538H185.637V41.8994H183.255V40.1538L182.294 40.8787V41.8994H181.14V42.6538H182.294V47.1953C182.294 48.4822 183.137 49.1627 184.217 49.1627ZM189.88 49.1479C191.389 49.1479 192.336 48.4231 192.839 47.5503L192.247 46.855C191.937 47.5503 191.315 48.3343 189.88 48.3343C188.475 48.3343 187.514 47.4467 187.454 45.6716H192.869C192.883 45.5532 192.913 45.3757 192.913 45.1982C192.913 43.0532 191.7 41.7515 189.762 41.7515C187.839 41.7515 186.522 43.142 186.522 45.4497C186.522 47.8018 187.898 49.1479 189.88 49.1479ZM189.762 42.5503C191.064 42.5503 191.937 43.3639 192.025 44.9615H187.469C187.602 43.3639 188.46 42.5503 189.762 42.5503Z" fill="white"/>
<rect x="237" y="22" width="92" height="46" rx="5" stroke="white" stroke-width="0.924558"/>
<path d="M262.103 50.4793V49.1331C263.804 49.0444 265.121 48.1124 265.121 46.4556C265.121 44.6361 263.745 44.0444 262.222 43.6893L262.103 43.6598V39.9763C263.08 40.1982 263.804 40.8343 264.159 41.9142L264.973 41.2633C264.5 40.0207 263.479 39.2515 262.103 39.0296V37.6094H261.334V38.9556C261.29 38.9556 261.26 38.9556 261.216 38.9556C259.544 38.9556 258.02 39.8876 258.02 41.6479C258.02 43.3787 259.352 43.9852 260.742 44.3106L261.334 44.4438V48.2012C260.151 48.0533 258.893 47.3876 258.479 45.9083L257.725 46.5592C258.301 48.216 259.751 48.9704 261.334 49.1036V50.4793H262.103ZM261.053 43.4083C259.766 43.0976 259.041 42.6538 259.041 41.574C259.041 40.4941 260.003 39.8728 261.201 39.8728C261.245 39.8728 261.29 39.8728 261.334 39.8728V43.4822L261.053 43.4083ZM264.145 46.4852C264.145 47.6538 263.213 48.1568 262.103 48.2308V44.6213C263.435 44.9615 264.145 45.3905 264.145 46.4852ZM273.723 49V48.142H269.507L268.264 48.2012L269.27 47.3284L271.208 45.4497C272.095 44.5917 273.516 43.216 273.516 41.6183C273.516 40.1095 272.628 38.9408 270.705 38.9408C268.442 38.9408 267.036 40.5089 267.243 42.4615L268.146 43.0385C267.894 41.0562 268.841 39.8728 270.646 39.8728C271.992 39.8728 272.524 40.7603 272.524 41.6775C272.524 42.8461 271.652 43.7929 270.631 44.8136L267.184 48.2456V49H273.723ZM278.953 49.1479C281.616 49.1479 282.873 46.9142 282.873 44.0296C282.873 41.1745 281.616 38.9408 278.953 38.9408C276.29 38.9408 275.048 41.1745 275.048 44.0296C275.048 46.9142 276.29 49.1479 278.953 49.1479ZM278.968 48.2308C276.867 48.2308 276.054 46.4408 276.054 44.0296C276.054 41.6479 276.867 39.8432 278.968 39.8432C281.068 39.8432 281.867 41.6479 281.867 44.0296C281.867 46.4408 281.068 48.2308 278.968 48.2308ZM288.285 49.1479C290.948 49.1479 292.205 46.9142 292.205 44.0296C292.205 41.1745 290.948 38.9408 288.285 38.9408C285.622 38.9408 284.38 41.1745 284.38 44.0296C284.38 46.9142 285.622 49.1479 288.285 49.1479ZM288.3 48.2308C286.199 48.2308 285.386 46.4408 285.386 44.0296C285.386 41.6479 286.199 39.8432 288.3 39.8432C290.401 39.8432 291.199 41.6479 291.199 44.0296C291.199 46.4408 290.401 48.2308 288.3 48.2308ZM295.145 49V45.7603L297.128 43.6598L300.678 49H301.876L297.823 42.9645L301.536 39.0887H300.308L296.373 43.2456L295.101 44.6065L295.145 42.9645V39.0887H294.169V49H295.145Z" fill="white"/>
<path d="M266.678 193V191.521H262.876L261.397 191.669L262.55 190.811L263.926 189.598C264.976 188.725 266.397 187.349 266.397 185.751C266.397 184.124 265.42 182.941 263.423 182.941C261.145 182.941 259.533 184.391 259.577 186.373L260.982 187.379C260.894 185.47 261.811 184.538 263.275 184.538C264.237 184.538 264.651 185.145 264.651 185.855C264.651 186.787 263.971 187.541 263.009 188.473L259.592 191.728V193H266.678ZM274.152 193V190.766H275.824V189.317H274.152V183.089H272.392L267.54 189.479V190.766H272.495V193H274.152ZM269.374 189.317L272.495 185.249V189.317H269.374ZM281.09 193L282.037 190.5H286.223L287.17 193H289.005L285.129 183.089H283.206L279.33 193H281.09ZM283.605 186.373L284.138 184.583L284.67 186.373L285.676 189.05H282.584L283.605 186.373ZM291.609 195.751V191.077C291.846 192.186 292.452 193.148 293.887 193.148C295.662 193.148 296.787 191.713 296.787 189.391C296.787 187.068 295.662 185.633 293.917 185.633C292.482 185.633 291.846 186.595 291.609 187.719V185.796H289.952V195.751H291.609ZM291.609 189.834V188.947C291.609 187.763 292.097 186.979 293.266 186.979C294.301 186.979 295.085 187.763 295.085 189.391C295.085 191.018 294.301 191.802 293.266 191.802C292.097 191.802 291.609 191.018 291.609 189.834ZM299.814 195.751V191.077C300.051 192.186 300.658 193.148 302.093 193.148C303.868 193.148 304.992 191.713 304.992 189.391C304.992 187.068 303.868 185.633 302.122 185.633C300.687 185.633 300.051 186.595 299.814 187.719V185.796H298.158V195.751H299.814ZM299.814 189.834V188.947C299.814 187.763 300.303 186.979 301.471 186.979C302.507 186.979 303.291 187.763 303.291 189.391C303.291 191.018 302.507 191.802 301.471 191.802C300.303 191.802 299.814 191.018 299.814 189.834ZM308.02 193V183.089H306.363V193H308.02ZM311.429 184.775V183.089H309.772V184.775H311.429ZM311.429 193V185.796H309.772V193H311.429ZM316.377 193.148C317.975 193.148 318.951 192.423 319.498 191.595L318.478 190.53C318.211 191.136 317.649 191.787 316.392 191.787C315.253 191.787 314.498 191.092 314.41 189.805H319.558C319.587 189.657 319.617 189.346 319.617 189.08C319.617 187.083 318.418 185.648 316.259 185.648C314.232 185.648 312.827 187.142 312.827 189.405C312.827 191.654 314.232 193.148 316.377 193.148ZM316.259 186.979C317.353 186.979 318.004 187.601 318.123 188.74H314.424C314.558 187.571 315.238 186.979 316.259 186.979ZM323.714 193.163C325.149 193.163 325.755 192.201 325.992 191.092V193H327.649V183.089H325.992V187.734C325.755 186.609 325.119 185.648 323.684 185.648C321.939 185.648 320.814 187.083 320.814 189.405C320.814 191.728 321.939 193.163 323.714 193.163ZM322.516 189.405C322.516 187.793 323.3 186.994 324.335 186.994C325.504 186.994 325.992 187.778 325.992 188.962V189.864C325.992 191.047 325.504 191.817 324.35 191.817C323.3 191.817 322.516 191.033 322.516 189.405Z" fill="white"/>
<path d="M247.5 184.563C247.445 184.554 247.381 184.554 247.326 184.563C246.061 184.517 245.052 183.482 245.052 182.198C245.052 180.887 246.107 179.833 247.417 179.833C248.728 179.833 249.782 180.897 249.782 182.198C249.773 183.482 248.765 184.517 247.5 184.563Z" stroke="white" stroke-width="1.38684" stroke-linecap="round" stroke-linejoin="round"/>
<path d="M246.556 191.237C247.812 191.447 249.196 191.227 250.167 190.577C251.46 189.715 251.46 188.303 250.167 187.442C249.187 186.791 247.784 186.571 246.528 186.791" stroke="white" stroke-width="1.38684" stroke-linecap="round" stroke-linejoin="round"/>
<path d="M236.473 184.563C236.528 184.554 236.592 184.554 236.647 184.563C237.912 184.517 238.92 183.482 238.92 182.198C238.92 180.887 237.866 179.833 236.555 179.833C235.244 179.833 234.19 180.897 234.19 182.198C234.199 183.482 235.208 184.517 236.473 184.563Z" stroke="white" stroke-width="1.38684" stroke-linecap="round" stroke-linejoin="round"/>
<path d="M237.417 191.237C236.161 191.447 234.777 191.227 233.805 190.577C232.513 189.715 232.513 188.303 233.805 187.442C234.786 186.791 236.188 186.571 237.444 186.791" stroke="white" stroke-width="1.38684" stroke-linecap="round" stroke-linejoin="round"/>
<path d="M242 191.411C241.945 191.402 241.881 191.402 241.826 191.411C240.561 191.365 239.552 190.329 239.552 189.046C239.552 187.735 240.607 186.681 241.917 186.681C243.228 186.681 244.282 187.744 244.282 189.046C244.273 190.329 243.265 191.374 242 191.411Z" stroke="white" stroke-width="1.38684" stroke-linecap="round" stroke-linejoin="round"/>
<path d="M239.333 194.298C238.04 195.16 238.04 196.572 239.333 197.433C240.799 198.414 243.201 198.414 244.668 197.433C245.96 196.572 245.96 195.16 244.668 194.298C243.21 193.327 240.799 193.327 239.333 194.298Z" stroke="white" stroke-width="1.38684" stroke-linecap="round" stroke-linejoin="round"/>
</g>
<defs>
<linearGradient id="paint0_linear_1_367" x1="68" y1="166" x2="68" y2="212" gradientUnits="userSpaceOnUse">
<stop stop-color="#CE9FFC"/>
<stop offset="0.505208" stop-color="#A582F7"/>
<stop offset="1" stop-color="#7367F0"/>
</linearGradient>
<clipPath id="clip0_1_367">
<rect width="350" height="235" fill="white"/>
</clipPath>
</defs>
</svg>
