<svg width="33" height="33" viewBox="0 0 33 33" fill="none" xmlns="http://www.w3.org/2000/svg">
<path d="M19.5212 10.0831V10.0803H20.2764L20.5523 10.1337C20.7363 10.1684 20.9033 10.2138 21.0533 10.27C21.2034 10.3261 21.3486 10.3917 21.489 10.4666C21.6294 10.5415 21.7567 10.6179 21.871 10.6956C21.9842 10.7724 22.0859 10.8539 22.1759 10.94C22.265 11.0271 22.4039 11.0496 22.5927 11.0074C22.7815 10.9653 22.9848 10.9068 23.2026 10.8319C23.4205 10.7569 23.6359 10.6727 23.8489 10.579C24.0619 10.4853 24.1916 10.4259 24.2381 10.4006C24.2836 10.3744 24.3078 10.3603 24.3107 10.3585L24.3136 10.3542L24.3281 10.3472L24.3426 10.3402L24.3572 10.3332L24.3717 10.3261L24.3746 10.3219L24.3789 10.3191L24.3833 10.3163L24.3862 10.3121L24.4007 10.3079L24.4152 10.3051L24.4124 10.3261L24.408 10.3472L24.4007 10.3683L24.3935 10.3894L24.3862 10.4034L24.3789 10.4175L24.3717 10.4385C24.3668 10.4526 24.362 10.4713 24.3572 10.4947C24.3523 10.5181 24.3063 10.6118 24.2192 10.7757C24.1321 10.9396 24.0231 11.1058 23.8924 11.2743C23.7617 11.4429 23.6446 11.5703 23.541 11.6564C23.4365 11.7435 23.3672 11.8044 23.3333 11.839C23.2995 11.8746 23.2583 11.9074 23.2099 11.9374L23.1373 11.9837L23.1228 11.9908L23.1082 11.9978L23.1053 12.002L23.101 12.0048L23.0966 12.0076L23.0937 12.0118L23.0792 12.0188L23.0647 12.0259L23.0618 12.0301L23.0574 12.0329L23.0531 12.0357L23.0501 12.0399L23.0473 12.0441L23.0429 12.0469L23.0385 12.0498L23.0356 12.054H23.1082L23.5149 11.9697C23.786 11.9135 24.0449 11.8456 24.2918 11.766L24.6839 11.6396L24.7275 11.6255L24.7493 11.6185L24.7638 11.6115L24.7783 11.6045L24.7928 11.5974L24.8074 11.5904L24.8364 11.5862L24.8654 11.5834V11.6115L24.8582 11.6143L24.8509 11.6185L24.848 11.6227L24.8437 11.6255L24.8393 11.6283L24.8364 11.6325L24.8335 11.6368L24.8291 11.6396L24.8248 11.6424L24.8219 11.6466L24.819 11.6508L24.8146 11.6536L24.8074 11.6677L24.8001 11.6817L24.7957 11.6845C24.7938 11.6873 24.7323 11.7669 24.6113 11.9233C24.4903 12.0807 24.4249 12.1602 24.4152 12.1621C24.4056 12.1649 24.392 12.179 24.3746 12.2043C24.3581 12.2305 24.2555 12.3349 24.0667 12.5175C23.8779 12.7001 23.693 12.8626 23.512 13.005C23.33 13.1482 23.238 13.3243 23.236 13.5331C23.2331 13.741 23.222 13.9761 23.2026 14.2383C23.1833 14.5005 23.147 14.7838 23.0937 15.0882C23.0405 15.3925 22.9582 15.7367 22.8468 16.1207C22.7355 16.5046 22.6 16.8792 22.4402 17.2444C22.2805 17.6097 22.1135 17.9374 21.9392 18.2277C21.7649 18.5181 21.6052 18.7639 21.46 18.9652C21.3147 19.1666 21.1671 19.3562 21.017 19.5341C20.867 19.7121 20.6772 19.9125 20.4478 20.1354C20.2173 20.3573 20.0915 20.4791 20.0702 20.5006C20.0479 20.5212 19.953 20.598 19.7855 20.731C19.619 20.8649 19.4399 20.9988 19.2482 21.1327C19.0575 21.2657 18.8822 21.3767 18.7225 21.4656C18.5627 21.5546 18.3701 21.6562 18.1445 21.7705C17.9199 21.8857 17.6769 21.9924 17.4155 22.0908C17.1541 22.1891 16.8782 22.2804 16.5877 22.3647C16.2973 22.449 16.0165 22.5145 15.7454 22.5613C15.4743 22.6082 15.1669 22.648 14.8232 22.6807L14.3077 22.7299V22.7369H13.3638V22.7299L13.2403 22.7229C13.158 22.7182 13.0903 22.7135 13.037 22.7088C12.9838 22.7042 12.7829 22.6784 12.4343 22.6316C12.0858 22.5848 11.8123 22.5379 11.6138 22.4911C11.4154 22.4443 11.1201 22.3553 10.728 22.2242C10.3358 22.0931 10.0004 21.9606 9.72155 21.8267C9.4437 21.6937 9.26943 21.6094 9.19875 21.5738C9.12904 21.5392 9.05062 21.4961 8.96349 21.4446L8.83279 21.3673L8.8299 21.3631L8.82553 21.3603L8.82117 21.3575L8.81827 21.3533L8.80374 21.3462L8.78922 21.3392L8.78633 21.335L8.78196 21.3322L8.7776 21.3294L8.7747 21.3252L8.77181 21.321L8.76744 21.3182H8.76018V21.2901L8.7747 21.2929L8.78922 21.2971L8.85457 21.3041C8.89814 21.3088 9.01674 21.3158 9.21037 21.3252C9.40401 21.3345 9.60973 21.3345 9.82757 21.3252C10.0454 21.3158 10.2681 21.2947 10.4956 21.262C10.7231 21.2292 10.9918 21.173 11.3016 21.0934C11.6114 21.0138 11.896 20.9192 12.1555 20.8096C12.414 20.6991 12.5979 20.6167 12.7074 20.5624C12.8158 20.509 12.9813 20.4098 13.204 20.2646L13.538 20.0469L13.5409 20.0427L13.5453 20.0398L13.5497 20.037L13.5525 20.0328L13.5554 20.0286L13.5598 20.0258L13.5642 20.023L13.5671 20.0188L13.5816 20.0146L13.5961 20.0118L13.599 19.9977L13.6034 19.9837L13.6077 19.9809L13.6106 19.9766L13.4945 19.9696C13.417 19.9649 13.342 19.9602 13.2694 19.9556C13.1967 19.9509 13.083 19.9298 12.9281 19.8924C12.7732 19.8549 12.6062 19.7987 12.4271 19.7238C12.248 19.6489 12.0737 19.5599 11.9043 19.4569C11.7348 19.3539 11.6124 19.2682 11.5368 19.1998C11.4623 19.1324 11.3655 19.0369 11.2464 18.9133C11.1283 18.7887 11.0257 18.6609 10.9385 18.5298C10.8514 18.3987 10.7681 18.2474 10.6888 18.076L10.5682 17.8204L10.5609 17.7993L10.5537 17.7782L10.5493 17.7642L10.5464 17.7501L10.5682 17.753L10.59 17.7572L10.7497 17.7782C10.8562 17.7923 11.0232 17.797 11.2508 17.7923C11.4783 17.7876 11.6356 17.7782 11.7227 17.7642C11.8099 17.7501 11.8631 17.7408 11.8825 17.7361L11.9115 17.7291L11.9478 17.722L11.9841 17.715L11.987 17.7108L11.9914 17.708L11.9958 17.7052L11.9987 17.701L11.9696 17.694L11.9406 17.6869L11.9115 17.6799L11.8825 17.6729L11.8534 17.6659C11.8341 17.6612 11.8002 17.6518 11.7518 17.6378C11.7034 17.6237 11.5727 17.5722 11.3597 17.4832C11.1467 17.3943 10.9773 17.3077 10.8514 17.2234C10.7252 17.1388 10.6049 17.0464 10.4912 16.9466C10.378 16.8455 10.2536 16.7153 10.118 16.5561C9.98248 16.3969 9.86146 16.212 9.75496 16.0013C9.64846 15.7905 9.56859 15.5892 9.51534 15.3972C9.4623 15.2064 9.42731 15.0112 9.41079 14.8143L9.38464 14.5193L9.39916 14.5221L9.41368 14.5263L9.4282 14.5333L9.44273 14.5403L9.45725 14.5474L9.47177 14.5544L9.69687 14.6527C9.84694 14.7183 10.0333 14.7745 10.256 14.8213C10.4787 14.8681 10.6118 14.8939 10.6553 14.8985L10.7207 14.9056H10.8514L10.8485 14.9014L10.8441 14.8985L10.8398 14.8957L10.8369 14.8915L10.834 14.8873L10.8296 14.8845L10.8253 14.8817L10.8223 14.8775L10.8078 14.8704L10.7933 14.8634L10.7904 14.8592L10.786 14.8564L10.7817 14.8536L10.7788 14.8494L10.7643 14.8424L10.7497 14.8353L10.7468 14.8311C10.7439 14.8292 10.7023 14.7993 10.6219 14.7412C10.5425 14.6822 10.4593 14.6059 10.3722 14.5122C10.285 14.4186 10.1979 14.3203 10.1108 14.2172C10.0235 14.114 9.94571 14.0035 9.8784 13.8871C9.81063 13.7701 9.73898 13.6212 9.66347 13.4404C9.58892 13.2606 9.53229 13.0794 9.49355 12.8968C9.45484 12.7142 9.43305 12.5339 9.4282 12.356C9.42337 12.178 9.4282 12.0259 9.44273 11.8994C9.45725 11.773 9.48629 11.6302 9.52986 11.471C9.57343 11.3118 9.63637 11.1432 9.71865 10.9653L9.84209 10.6984L9.84935 10.6773L9.85661 10.6563L9.86098 10.6535L9.86387 10.6492L9.86678 10.645L9.87113 10.6422L9.87551 10.645L9.8784 10.6492L9.8813 10.6535L9.88566 10.6563L9.89003 10.6591L9.89292 10.6633L9.89582 10.6675L9.90018 10.6703L9.90744 10.6844L9.9147 10.6984L9.91907 10.7012L9.92196 10.7054L10.118 10.9161C10.2487 11.0566 10.4036 11.2135 10.5827 11.3867C10.7618 11.56 10.8611 11.6499 10.8804 11.6564C10.8998 11.6639 10.924 11.6854 10.953 11.721C10.9821 11.7557 11.0789 11.8386 11.2435 11.9697C11.4081 12.1008 11.6235 12.253 11.8897 12.4262C12.156 12.5995 12.4513 12.7704 12.7756 12.9389C13.0999 13.1075 13.4485 13.2597 13.8212 13.3955C14.194 13.5313 14.4554 13.6202 14.6054 13.6624C14.7555 13.7045 15.012 13.7584 15.3751 13.8239C15.7382 13.8895 16.0117 13.9316 16.1956 13.9503C16.3796 13.9691 16.5054 13.9798 16.5732 13.9827L16.6748 13.9855L16.672 13.9644L16.6676 13.9433L16.6385 13.7677C16.6192 13.6507 16.6095 13.4868 16.6095 13.2761C16.6095 13.0654 16.6264 12.8711 16.6603 12.6931C16.6942 12.5152 16.745 12.3349 16.8128 12.1523C16.8806 11.9697 16.9469 11.8231 17.0118 11.7126C17.0776 11.603 17.1638 11.478 17.2703 11.3376C17.3768 11.1971 17.5147 11.0519 17.6841 10.9021C17.8536 10.7522 18.0472 10.6188 18.265 10.5017C18.4829 10.3847 18.6838 10.2957 18.8677 10.2348C19.0517 10.174 19.2066 10.1342 19.3324 10.1154C19.4583 10.0967 19.5212 10.0859 19.5212 10.0831V10.0831Z" fill="white"/>
<circle cx="16.5" cy="16.5" r="16.25" stroke="white" stroke-width="0.5"/>
</svg>
